<svg width="179" height="43" viewBox="0 0 179 43" fill="none" xmlns="http://www.w3.org/2000/svg">
<path d="M20.7255 0.0193523C14.696 0.243282 9.08951 2.94702 5.16383 7.5279C1.15798 12.2028 -0.630694 18.2986 0.198674 24.4553C0.649298 27.7866 1.92653 31.0488 3.86448 33.8106C7.26766 38.6624 12.4346 41.8776 18.2513 42.765C19.3405 42.9309 20.2805 43 21.4996 43C22.5032 43 23.0146 42.9724 23.891 42.8756C28.1871 42.4001 32.2012 40.6557 35.48 37.8441C39.6407 34.2778 42.2643 29.3209 42.8669 23.8996C42.9637 23.0233 42.9913 22.5118 42.9913 21.5083C42.9913 20.9692 42.9747 20.3223 42.9582 20.0707C42.7453 17.2592 42.1122 14.8208 40.9483 12.3272C40.7852 11.9761 40.2931 11.0251 40.2544 10.9781C40.2489 10.9725 39.8425 11.1965 39.3476 11.4729L38.4519 11.9788L38.5901 12.2304C38.8113 12.6313 39.1707 13.3832 39.3946 13.9057C40.0996 15.5562 40.5779 17.3393 40.7935 19.1308C40.9013 20.0237 40.9207 20.3721 40.9207 21.5083C40.9207 22.6445 40.9013 22.9929 40.7935 23.8858C40.2378 28.5082 37.9958 32.8098 34.5069 35.9559C31.5405 38.6292 27.8139 40.3294 23.8771 40.8022C22.9842 40.91 22.6359 40.9293 21.4996 40.9293C20.3634 40.9293 20.0151 40.91 19.1221 40.8022C13.8722 40.1691 9.08951 37.3852 5.8992 33.1056C3.8866 30.4074 2.60661 27.2088 2.20575 23.8858C2.09793 22.9929 2.07858 22.6445 2.07858 21.5083C2.07858 20.3721 2.09793 20.0237 2.20575 19.1308C2.98535 12.6728 7.0382 6.9584 12.888 4.07773C15.4204 2.83091 18.0992 2.16189 20.8859 2.08172L21.4996 2.06513V1.03118V3.98606e-07L21.2176 0.00552952C21.0601 0.00829409 20.8389 0.0138232 20.7255 0.0193523Z" fill="white"/>
<path d="M20.8364 4.19383C19.3187 4.27401 18.1907 4.45094 16.861 4.81586C15.1746 5.27754 13.408 6.08479 11.9124 7.08004C9.89152 8.42638 8.13326 10.2261 6.84221 12.2746C4.82961 15.4677 3.91454 19.2303 4.23799 23.0011C4.47298 25.7685 5.36317 28.4225 6.84221 30.7696C7.95909 32.5444 9.42984 34.1368 11.1135 35.3974C11.9981 36.0609 12.7694 36.5337 13.7868 37.0424C15.827 38.0597 17.8756 38.6237 20.2282 38.8172C20.8502 38.8697 22.332 38.8614 22.9651 38.8034C25.304 38.5905 27.3083 38.021 29.3513 36.9871C32.2955 35.4997 34.7118 33.2383 36.4396 30.3549C36.9842 29.4481 37.6228 28.0492 37.9739 26.9959C38.9996 23.9079 39.1323 20.5075 38.3472 17.3476C38.0237 16.0427 37.5924 14.8955 36.9621 13.6486L36.6442 13.0211L36.5281 13.0847C35.2647 13.7952 34.8527 14.0301 34.8527 14.0467C34.8527 14.055 34.9246 14.1933 35.0103 14.3508C35.096 14.5084 35.2536 14.8236 35.3587 15.053C36.1189 16.6979 36.5557 18.3125 36.7382 20.1675C36.7852 20.6457 36.7852 22.3985 36.7382 22.8767C36.4147 26.1445 35.1956 29.0334 33.1083 31.4745C32.7323 31.9141 31.8864 32.7573 31.444 33.136C28.1819 35.9117 23.9825 37.1889 19.7306 36.6968C16.731 36.3512 13.9112 35.1182 11.5834 33.136C11.1439 32.7573 10.2979 31.9141 9.91916 31.4745C7.85127 29.0611 6.61275 26.1417 6.29482 22.932C6.24506 22.4289 6.22847 21.1019 6.26441 20.5517C6.46899 17.5163 7.49464 14.7462 9.31096 12.3299C10.1376 11.2324 11.2019 10.1653 12.305 9.33039C14.4696 7.69101 17.0407 6.65706 19.7306 6.34743C20.2531 6.28661 20.8226 6.2479 21.2041 6.2479H21.5276V5.21119V4.17448L21.2594 4.18001C21.1101 4.18278 20.9194 4.18831 20.8364 4.19383Z" fill="white"/>
<path d="M138.695 12.0009C135.148 12.2138 132.229 14.2043 130.86 17.3393C129.962 19.3989 129.793 21.9838 130.413 24.2258C131.079 26.6421 132.572 28.5634 134.695 29.7273C136.799 30.8829 139.533 31.1842 142.021 30.5346C145.405 29.6527 147.86 27.0014 148.543 23.4987C149.035 20.9802 148.609 18.329 147.384 16.2971C145.62 13.3694 142.4 11.777 138.695 12.0009ZM140.348 14.9424C142.068 15.2051 143.467 16.1229 144.365 17.5743C144.855 18.365 145.153 19.233 145.316 20.3333C145.385 20.8033 145.385 22.0474 145.316 22.5173C145.142 23.6923 144.81 24.5935 144.244 25.4478C143.337 26.8107 141.999 27.6511 140.321 27.9138C139.878 27.9829 138.886 27.9829 138.441 27.9138C135.729 27.4963 133.888 25.5169 133.445 22.545C133.371 22.0308 133.376 20.748 133.459 20.2227C133.661 18.9372 134.125 17.8286 134.839 16.9467C135.038 16.7007 135.51 16.2362 135.745 16.0593C136.627 15.3848 137.592 15.0198 138.842 14.8899C139.082 14.865 140.069 14.8982 140.348 14.9424Z" fill="white"/>
<path d="M119.252 12.0286C117.59 12.1337 116.1 12.6894 115.011 13.6072C113.609 14.7904 112.99 16.6233 113.372 18.4784C113.681 19.9933 114.699 21.0936 116.504 21.8622C117.267 22.1884 117.953 22.4013 119.542 22.8104C121.143 23.2224 121.707 23.391 122.263 23.6287C123.161 24.0103 123.648 24.4636 123.833 25.0884C123.896 25.3041 123.896 25.7381 123.833 26.0007C123.808 26.1058 123.739 26.2965 123.678 26.4182C123.161 27.4853 121.834 28.0576 120.015 27.9968C118.403 27.9415 116.991 27.4494 115.605 26.4569C115.462 26.3546 115.304 26.2495 115.254 26.2247C115.014 26.103 114.513 26.0616 114.223 26.139C113.853 26.2357 113.452 26.5371 113.269 26.855C112.891 27.5074 112.987 28.1682 113.549 28.7377C114.624 29.8297 116.678 30.6093 119.061 30.8277C119.611 30.8802 120.831 30.8719 121.37 30.8138C122.926 30.6452 124.09 30.2416 125.118 29.509C125.431 29.2878 126 28.7128 126.23 28.3921C126.479 28.0382 126.772 27.4549 126.907 27.0374C127.128 26.3601 127.206 25.7851 127.181 25.0083C127.164 24.4139 127.098 24.0185 126.937 23.5403C126.725 22.9044 126.407 22.3902 125.917 21.8954C125.304 21.2761 124.494 20.784 123.402 20.3666C122.65 20.0818 122.199 19.9463 120.537 19.5178C119.26 19.1861 118.721 19.0313 118.304 18.8709C117.317 18.4894 116.825 18.0858 116.65 17.5191C116.604 17.3587 116.595 17.2813 116.606 17.0214C116.631 16.4962 116.8 16.0925 117.154 15.7332C117.745 15.1277 118.688 14.8374 119.918 14.8817C121.359 14.9342 122.655 15.3185 123.789 16.029C124.203 16.2916 124.353 16.3441 124.687 16.3607C125.03 16.3773 125.221 16.3386 125.497 16.2004C126.042 15.9267 126.36 15.4401 126.36 14.8872C126.36 14.3122 126.069 13.9002 125.309 13.3943C123.896 12.4544 121.397 11.8904 119.252 12.0286Z" fill="white"/>
<path d="M68.8711 12.1281C68.2518 12.2111 67.7183 12.6589 67.5109 13.2699C67.4639 13.4164 67.4612 13.7177 67.4529 21.0107C67.4473 26.0809 67.4556 28.6713 67.4722 28.815C67.5856 29.672 68.2352 30.3576 69.0784 30.5097C69.3908 30.565 77.4965 30.565 77.7619 30.5097C78.29 30.3963 78.7268 29.9678 78.8512 29.4398C78.9645 28.9588 78.8456 28.4888 78.5222 28.1488C78.3425 27.958 78.196 27.8557 77.961 27.7617L77.773 27.6871L74.2426 27.6788L70.7095 27.6733L70.704 20.5462L70.6957 13.4219L70.6321 13.2367C70.5492 12.9879 70.3253 12.6617 70.1345 12.5041C69.7806 12.2138 69.2968 12.0701 68.8711 12.1281Z" fill="white"/>
<path d="M83.7709 12.1254C83.2623 12.2055 82.784 12.5318 82.5628 12.9547C82.3582 13.3473 82.3748 12.5566 82.3748 21.3977C82.3748 30.2222 82.3582 29.4813 82.5628 29.8656C82.7702 30.2637 83.1904 30.5816 83.6327 30.6728C83.8815 30.7254 84.0142 30.7254 84.2741 30.6701C84.8712 30.5484 85.3136 30.1669 85.532 29.5919L85.5955 29.4288L85.6038 21.4862C85.6094 12.6866 85.626 13.3694 85.4297 12.9962C85.1615 12.4875 84.6473 12.153 84.0861 12.1254C83.9589 12.1198 83.8179 12.1198 83.7709 12.1254Z" fill="white"/>
<path d="M153.907 12.1282C153.396 12.1973 152.884 12.5539 152.666 12.9962C152.47 13.3943 152.484 12.7806 152.484 21.1351C152.484 26.2744 152.495 28.7404 152.514 28.8621C152.586 29.3072 152.752 29.6279 153.092 29.9679C153.277 30.1531 153.377 30.2278 153.562 30.3218C154.026 30.5512 153.609 30.5319 158.344 30.5429C161.399 30.5484 162.613 30.5429 162.748 30.518C163.691 30.3605 164.214 29.2712 163.757 28.4142C163.65 28.2124 163.359 27.9332 163.149 27.8337C162.812 27.6678 162.956 27.6733 159.196 27.6733H155.746L155.74 20.5463L155.732 13.422L155.657 13.2174C155.392 12.4876 154.654 12.0287 153.907 12.1282Z" fill="white"/>
<path d="M168.809 12.1253C168.485 12.1751 168.12 12.3493 167.902 12.5621C167.614 12.8386 167.465 13.1372 167.41 13.5408C167.393 13.6818 167.385 16.3275 167.39 21.3147C167.399 29.8407 167.374 28.9615 167.623 29.4674C167.894 30.0203 168.441 30.4157 169.074 30.518C169.19 30.5373 170.647 30.5484 173.398 30.5484C177.951 30.5484 177.713 30.5567 178.062 30.3797C178.418 30.2 178.72 29.8019 178.802 29.3956C178.852 29.1689 178.825 28.7735 178.747 28.5855C178.601 28.2179 178.283 27.9082 177.893 27.7589L177.71 27.6871L174.18 27.6788L170.647 27.6732V20.6015C170.647 12.7805 170.661 13.3639 170.467 12.9962C170.199 12.4875 169.682 12.153 169.115 12.1253C168.994 12.1198 168.856 12.1198 168.809 12.1253Z" fill="white"/>
<path d="M106.396 12.2222C105.672 12.2719 105.147 12.4848 104.688 12.9216C104.489 13.1151 104.315 13.3473 104.193 13.5879C104.149 13.6791 103.137 16.1395 101.948 19.0562C100.757 21.97 99.7808 24.3531 99.7753 24.3475C99.7725 24.3448 98.8022 21.9589 97.6189 19.0479C96.4385 16.1368 95.4349 13.6791 95.3907 13.5879C95.0147 12.8387 94.3236 12.388 93.3283 12.2443C93.0049 12.2 92.04 12.2277 91.8161 12.2885C91.1277 12.4793 90.5997 12.9907 90.3619 13.6984L90.2956 13.892L90.2873 21.5857C90.2818 30.084 90.268 29.4454 90.4559 29.8269C90.5638 30.0481 90.8402 30.3466 91.0531 30.4766C91.3185 30.6369 91.5286 30.695 91.8576 30.6977C92.1893 30.6977 92.3745 30.6535 92.6593 30.5042C93.0076 30.3217 93.2758 30.0204 93.4251 29.6472L93.5025 29.4564L93.5108 23.1864C93.5135 19.739 93.5274 16.9192 93.5384 16.9192C93.5495 16.9192 94.7382 19.8413 96.1814 23.4103C97.6245 26.9794 98.8519 29.9983 98.91 30.1227C99.1146 30.5595 99.5154 30.7751 99.9467 30.6867C100.245 30.6259 100.489 30.4517 100.607 30.2195C100.641 30.1503 101.874 27.1314 103.344 23.5126C104.818 19.8938 106.031 16.9219 106.045 16.9081C106.056 16.8915 106.067 19.6754 106.067 23.0924C106.067 27.4908 106.076 29.3431 106.098 29.4481C106.186 29.8794 106.535 30.3245 106.935 30.5208C107.165 30.6369 107.458 30.7143 107.663 30.7143C107.884 30.7143 108.207 30.6341 108.439 30.5208C108.854 30.3162 109.183 29.9043 109.288 29.4675C109.324 29.3127 109.33 28.3644 109.33 21.6604C109.33 13.2202 109.343 13.845 109.147 13.4358C109.014 13.1566 108.86 12.9603 108.616 12.7668C108.232 12.4627 107.729 12.2747 107.132 12.2194C106.966 12.2056 106.803 12.1945 106.772 12.1945C106.742 12.1973 106.573 12.2083 106.396 12.2222Z" fill="white"/>
<path d="M16.6666 12.3023C16.0722 12.4599 15.5331 12.9409 15.3175 13.5077C15.1627 13.9168 15.1709 13.4966 15.1682 21.7101C15.1682 30.142 15.1544 29.5228 15.3506 29.9347C15.5303 30.3107 15.9146 30.6397 16.3293 30.7724C16.708 30.894 17.2057 30.8359 17.6148 30.6231C17.847 30.4987 18.1456 30.1946 18.2728 29.9513C18.4635 29.5808 18.458 29.708 18.458 26.6144V23.8305H20.8991C22.2399 23.8305 23.5365 23.8167 23.7798 23.8029C25.4468 23.6978 26.7849 23.1256 27.7884 22.0861C28.2307 21.6272 28.4961 21.2457 28.7836 20.6485C29.1873 19.8053 29.3725 18.8709 29.3421 17.8342C29.3034 16.5431 28.9302 15.4152 28.2224 14.4587C28.0345 14.2043 27.6087 13.762 27.3461 13.5464C26.6577 12.9824 25.7896 12.5843 24.822 12.3825C24.1724 12.2498 24.0894 12.247 20.3656 12.2498C17.0177 12.2498 16.8601 12.2525 16.6666 12.3023ZM23.5476 15.194C25.0404 15.4456 25.9776 16.5431 25.9776 18.0388C25.9776 19.6173 24.8856 20.7536 23.2296 20.9001C23.061 20.9139 21.922 20.9277 20.6918 20.9277H18.458V18.0388V15.1498H20.8715C22.9477 15.1498 23.3236 15.1553 23.5476 15.194Z" fill="white"/>
<path d="M51.7573 12.294C50.9639 12.4101 50.3059 12.9962 50.1097 13.762C50.0571 13.9638 50.0571 14.1518 50.0571 21.6548C50.0571 28.5496 50.0627 29.3541 50.1014 29.5062C50.3115 30.3217 51.127 30.8387 51.937 30.6756C52.6033 30.5401 53.0843 30.0922 53.2502 29.4564C53.2861 29.3154 53.2917 28.9339 53.2917 26.5204V23.7503L56.0922 23.7393C59.1968 23.7282 59.0585 23.7365 59.8686 23.5375C60.9384 23.2748 61.8065 22.7855 62.5281 22.0418C62.8294 21.7322 62.9455 21.5885 63.1722 21.2401C63.6284 20.5407 63.938 19.6643 64.0458 18.7575C64.0928 18.3705 64.0845 17.5798 64.032 17.1817C63.8053 15.4788 62.9676 14.1131 61.5992 13.2146C61.1098 12.8967 60.3358 12.5815 59.7055 12.4433C58.9811 12.2885 59.0917 12.2912 55.3236 12.2857C53.4078 12.2829 51.8043 12.2885 51.7573 12.294ZM58.2623 15.194C58.9507 15.2963 59.5092 15.5645 59.957 16.0068C60.5155 16.5625 60.7919 17.3227 60.7477 18.1908C60.6813 19.4901 59.8851 20.4301 58.5582 20.784L58.2817 20.8558L55.7881 20.8669L53.2917 20.8752V18.0111V15.1498H55.6305C57.6154 15.1498 58.0135 15.1553 58.2623 15.194Z" fill="white"/>
</svg>
